<svg width="23" height="24" viewBox="0 0 23 24" fill="none" xmlns="http://www.w3.org/2000/svg">
<ellipse cx="11.5" cy="11.7731" rx="11.5" ry="11.486" fill="#CA0100"/>
<g clip-path="url(#clip0_1565_35170)">
<path d="M11.4994 6.2793C9.30274 6.2793 7.51562 8.06424 7.51562 10.2582C7.51562 12.981 11.0807 16.9783 11.2325 17.1471C11.3751 17.3057 11.624 17.3054 11.7663 17.1471C11.9181 16.9783 15.4832 12.981 15.4832 10.2582C15.4831 8.06424 13.6961 6.2793 11.4994 6.2793ZM11.4994 12.2601C10.3942 12.2601 9.49509 11.3621 9.49509 10.2582C9.49509 9.15436 10.3942 8.25634 11.4994 8.25634C12.6046 8.25634 13.5037 9.15439 13.5037 10.2582C13.5037 11.3621 12.6046 12.2601 11.4994 12.2601Z" fill="white"/>
</g>
<defs>
<clipPath id="clip0_1565_35170">
<rect width="11" height="10.9866" fill="white" transform="translate(6 6.2793)"/>
</clipPath>
</defs>
</svg>
