<svg width="23" height="24" viewBox="0 0 23 24" fill="none" xmlns="http://www.w3.org/2000/svg">
<ellipse cx="11.5" cy="11.7185" rx="11.5" ry="11.486" fill="#CA0100"/>
<path d="M11.5 6.22461C8.46718 6.22461 6 8.68879 6 11.7179C6 14.7471 8.46718 17.2113 11.5 17.2113C14.5328 17.2113 17 14.7471 17 11.7179C17 8.68879 14.5328 6.22461 11.5 6.22461ZM14.1157 14.5593C14.0263 14.6486 13.909 14.6935 13.7917 14.6935C13.6744 14.6935 13.557 14.6486 13.4677 14.5593L11.176 12.2705C11.0898 12.1849 11.0417 12.0686 11.0417 11.9468V8.97127C11.0417 8.71813 11.247 8.51352 11.5 8.51352C11.753 8.51352 11.9583 8.71813 11.9583 8.97127V11.7573L14.1157 13.912C14.2949 14.0911 14.2949 14.3804 14.1157 14.5593Z" fill="white"/>
</svg>
